<svg width="24" height="24" viewBox="0 0 24 24" fill="none" xmlns="http://www.w3.org/2000/svg">
<mask id="mask0_1560_449" style="mask-type:alpha" maskUnits="userSpaceOnUse" x="0" y="0" width="24" height="24">
<rect width="24" height="24" fill="#D9D9D9"/>
</mask>
<g mask="url(#mask0_1560_449)">
<path d="M2 22.0002V4.00024C2 3.45024 2.19583 2.97941 2.5875 2.58774C2.97917 2.19608 3.45 2.00024 4 2.00024H20C20.55 2.00024 21.0208 2.19608 21.4125 2.58774C21.8042 2.97941 22 3.45024 22 4.00024V16.0002C22 16.5502 21.8042 17.0211 21.4125 17.4127C21.0208 17.8044 20.55 18.0002 20 18.0002H6L2 22.0002ZM4 17.1752L5.175 16.0002H20V4.00024H4V17.1752Z" fill="#2D2D2D"/>
</g>
</svg>
