<svg width="24" height="24" viewBox="0 0 24 24" fill="none" xmlns="http://www.w3.org/2000/svg">
<mask id="mask0_1560_454" style="mask-type:alpha" maskUnits="userSpaceOnUse" x="0" y="0" width="24" height="24">
<rect width="24" height="24" fill="#D9D9D9"/>
</mask>
<g mask="url(#mask0_1560_454)">
<path d="M12 15.9998C13.25 15.9998 14.3125 15.5623 15.1875 14.6873C16.0625 13.8123 16.5 12.7498 16.5 11.4998C16.5 10.2498 16.0625 9.18726 15.1875 8.31226C14.3125 7.43726 13.25 6.99976 12 6.99976C10.75 6.99976 9.6875 7.43726 8.8125 8.31226C7.9375 9.18726 7.5 10.2498 7.5 11.4998C7.5 12.7498 7.9375 13.8123 8.8125 14.6873C9.6875 15.5623 10.75 15.9998 12 15.9998ZM12 14.1998C11.25 14.1998 10.6125 13.9373 10.0875 13.4123C9.5625 12.8873 9.3 12.2498 9.3 11.4998C9.3 10.7498 9.5625 10.1123 10.0875 9.58726C10.6125 9.06226 11.25 8.79976 12 8.79976C12.75 8.79976 13.3875 9.06226 13.9125 9.58726C14.4375 10.1123 14.7 10.7498 14.7 11.4998C14.7 12.2498 14.4375 12.8873 13.9125 13.4123C13.3875 13.9373 12.75 14.1998 12 14.1998ZM12 18.9998C9.56667 18.9998 7.35 18.3206 5.35 16.9623C3.35 15.6039 1.9 13.7831 1 11.4998C1.9 9.21642 3.35 7.39559 5.35 6.03726C7.35 4.67892 9.56667 3.99976 12 3.99976C14.4333 3.99976 16.65 4.67892 18.65 6.03726C20.65 7.39559 22.1 9.21642 23 11.4998C22.1 13.7831 20.65 15.6039 18.65 16.9623C16.65 18.3206 14.4333 18.9998 12 18.9998ZM12 16.9998C13.8833 16.9998 15.6125 16.5039 17.1875 15.5123C18.7625 14.5206 19.9667 13.1831 20.8 11.4998C19.9667 9.81642 18.7625 8.47892 17.1875 7.48726C15.6125 6.49559 13.8833 5.99976 12 5.99976C10.1167 5.99976 8.3875 6.49559 6.8125 7.48726C5.2375 8.47892 4.03333 9.81642 3.2 11.4998C4.03333 13.1831 5.2375 14.5206 6.8125 15.5123C8.3875 16.5039 10.1167 16.9998 12 16.9998Z" fill="#2D2D2D"/>
</g>
</svg>
