<svg width="24" height="26" viewBox="0 0 24 26" fill="none" xmlns="http://www.w3.org/2000/svg">
<g id="&#240;&#159;&#166;&#134; emoji &#34;thumbs up&#34;">
<path id="Vector" d="M16.6498 25.3637C14.7847 25.3486 11.986 25.2751 9.23263 25.0158C7.33727 24.8364 5.37924 24.5533 3.89234 23.7104C3.47307 23.4727 3.0149 23.4143 2.6086 23.3646C2.4357 23.343 2.27361 23.3236 2.1353 23.2911C1.08064 23.0426 0.343675 22.1306 0.339352 21.0738L0.324224 13.9959C0.322063 13.0169 1.02013 12.1978 1.98618 12.0465C2.00347 12.0443 2.01859 12.04 2.03588 12.0357C2.15475 11.9968 4.99455 11.0718 7.13412 9.39904C8.14123 8.61236 9.00354 7.39994 9.44226 6.15726C9.87882 4.9189 9.87666 3.56816 9.8745 2.48324C9.8745 1.78302 9.87234 0.912061 10.0625 0.784551C10.525 0.479824 11.0351 0.324219 11.5775 0.324219C13.246 0.324219 14.949 1.84785 15.016 3.39959C15.0635 4.47586 14.7026 5.74663 14.3546 6.97419C13.944 8.42866 13.5874 9.68431 13.9094 10.538C13.957 10.6655 14.078 10.7476 14.212 10.7476C14.2163 10.7476 15.7875 10.6936 15.7875 10.6936H15.8026C17.5662 10.6936 19.0012 12.1286 19.0034 13.89L19.0142 23.0123C19.0142 23.6412 18.7721 24.2313 18.3269 24.6743C17.8839 25.1173 17.2939 25.3637 16.6649 25.3637H16.6498Z" fill="#979393"/>
<path id="Vector_2" d="M11.5775 0.648356C13.06 0.648356 14.6312 2.04448 14.6917 3.41251C14.7371 4.43691 14.3849 5.68176 14.0434 6.88554C13.6155 8.39404 13.2481 9.69724 13.6068 10.6503C13.7019 10.9032 13.944 11.0696 14.2141 11.0696H14.2379L15.7939 11.0156H15.8069C17.3911 11.0156 18.6813 12.3036 18.6835 13.8899L18.6943 23.0123C18.6943 23.5526 18.4846 24.0626 18.1021 24.4452C17.7196 24.8277 17.2117 25.0395 16.6692 25.0395H16.6519C14.7933 25.0244 12.0032 24.9509 9.26285 24.6937C7.40423 24.5187 5.48509 24.242 4.05223 23.4294C3.57677 23.1593 3.0624 23.0966 2.64962 23.0447C2.48537 23.0253 2.33192 23.0058 2.2109 22.9756C1.3032 22.7616 0.667811 21.9793 0.66565 21.0737L0.64836 13.9958C0.646199 13.1789 1.22972 12.4938 2.03584 12.3685C2.06826 12.3641 2.10284 12.3555 2.13309 12.3447C2.25412 12.3058 5.14579 11.3614 7.33075 9.65402C8.38324 8.8306 9.28662 7.56415 9.74479 6.26528C10.2008 4.97505 10.1986 3.59405 10.1965 2.4832C10.1965 1.95587 10.1943 1.24268 10.2851 1.02656C10.6827 0.773705 11.1171 0.648356 11.5775 0.648356ZM11.5775 0C11.0048 0 10.4256 0.155605 9.88311 0.514362C9.18288 0.976856 9.94146 3.76046 9.13534 6.047C8.65123 7.41935 7.7284 8.52155 6.93309 9.14182C4.81513 10.7973 1.93643 11.7266 1.93643 11.7266C0.819094 11.9016 -0.00215693 12.8655 4.25549e-06 13.998L0.0172939 21.0759C0.0216163 22.2948 0.875285 23.3257 2.06178 23.6066C2.54156 23.719 3.1964 23.6888 3.73237 23.9935C5.16524 24.8061 7.00225 25.1303 9.20233 25.3377C11.9254 25.5949 14.6917 25.6706 16.6476 25.6879H16.6692C18.1453 25.6879 19.3448 24.4906 19.3426 23.0123L19.3318 13.8899C19.3296 11.9427 17.7498 10.3694 15.8069 10.3694H15.781L14.2163 10.4234C13.676 8.98837 15.446 5.75956 15.3423 3.38442C15.2666 1.69653 13.4664 0 11.5775 0Z" fill="#797575"/>
<path id="Vector_3" d="M12.4571 12.5757C12.8634 13.6563 12.8677 15.342 12.4571 16.3837C11.8628 17.8879 10.4083 19.2041 8.72903 19.4353C8.31841 19.4915 8.56262 19.8697 8.97109 19.8135C10.7886 19.5628 13.2481 18.8259 13.8878 17.1942C15.6427 12.7097 13.5895 10.3605 12.6732 11.0607C12.2323 11.4022 12.228 11.9641 12.4571 12.5757Z" fill="#797575"/>
<path id="Vector_4" d="M16.8143 14.1798C15.0076 14.1798 12.8356 13.8448 12.7426 12.2433C12.7167 11.7852 12.855 11.4005 13.1662 11.0698C13.9853 10.201 15.9974 9.72339 18.8329 9.72339C19.8616 9.72339 20.6115 9.79039 20.6202 9.79039C20.6288 9.79039 20.6396 9.79255 20.6483 9.79255H20.6677C20.698 9.79039 20.7261 9.79039 20.7563 9.79039C21.6748 9.79039 22.442 10.6181 22.5047 11.6749C22.5696 12.7685 21.8499 13.7021 20.9011 13.7562C20.886 13.7562 20.8687 13.7583 20.8536 13.7626C20.8341 13.7648 18.8329 14.1798 16.8143 14.1798Z" fill="#979393"/>
<path id="Vector_5" d="M18.8347 10.0475C19.8461 10.0475 20.5852 10.1124 20.5917 10.1124C20.6112 10.1145 20.6306 10.1145 20.6501 10.1145C20.663 10.1145 20.676 10.1145 20.6868 10.1124C20.7106 10.1102 20.7344 10.1102 20.756 10.1102C21.5016 10.1102 22.1283 10.8039 22.1802 11.6879C22.2061 12.146 22.0765 12.5804 21.815 12.9133C21.5707 13.2245 21.2379 13.406 20.8813 13.4276C20.8489 13.4298 20.8165 13.4341 20.7862 13.4406C20.7668 13.4449 18.7936 13.8534 16.814 13.8534C15.6642 13.8534 14.7522 13.7194 14.106 13.4557C13.2178 13.0926 13.0859 12.5783 13.0665 12.2238C13.0449 11.8543 13.1529 11.5582 13.4036 11.2902C14.1492 10.5014 16.1289 10.0475 18.8347 10.0475ZM18.8347 9.39917C16.3666 9.39917 12.2733 9.77305 12.4181 12.2627C12.524 14.0608 14.6939 14.5039 16.814 14.5039C18.8909 14.5039 20.9202 14.0781 20.9202 14.0781C22.0484 14.0111 22.9042 12.9262 22.8286 11.6533C22.7572 10.4214 21.8409 9.46401 20.7581 9.46401C20.7214 9.46401 20.6868 9.46401 20.6501 9.46617C20.6501 9.46617 19.8915 9.39917 18.8347 9.39917Z" fill="#797575"/>
<path id="Vector_6" d="M18.169 18.2926C15.8112 18.2926 13.0016 17.8971 13.0016 16.0082C13.0016 14.1194 15.8112 13.7239 18.169 13.7239C20.1681 13.7239 21.99 14.0156 22.0073 14.0178C22.0246 14.02 22.0419 14.0221 22.0592 14.0221C23.0122 14.0221 23.6757 15.0292 23.6757 15.9326C23.6757 16.8857 22.969 17.9922 22.0592 17.9922C22.0419 17.9922 22.0246 17.9944 22.0073 17.9965C21.9878 18.0009 20.166 18.2926 18.169 18.2926Z" fill="#979393"/>
<path id="Vector_7" d="M18.169 14.05C20.14 14.05 21.9381 14.3374 21.9554 14.3396C21.99 14.3461 22.0245 14.3482 22.0591 14.3482C22.7982 14.3482 23.3515 15.1868 23.3515 15.9345C23.3515 16.7147 22.755 17.67 22.0591 17.67C22.0245 17.67 21.99 17.6721 21.9554 17.6786C21.9381 17.6808 20.1378 17.9682 18.169 17.9682C16.6929 17.9682 15.5194 17.8126 14.6787 17.5035C13.4662 17.0583 13.3258 16.4359 13.3258 16.008C13.3258 15.5779 13.4662 14.9577 14.6787 14.5125C15.5172 14.2056 16.6929 14.05 18.169 14.05ZM18.169 13.4016C15.5907 13.4016 12.6774 13.8749 12.6774 16.0102C12.6774 18.1454 15.5885 18.6187 18.169 18.6187C20.22 18.6187 22.0591 18.3205 22.0591 18.3205C23.1743 18.3205 23.9999 17.0432 23.9999 15.9367C23.9999 14.8302 23.1743 13.702 22.0591 13.702C22.0591 13.6999 20.2178 13.4016 18.169 13.4016Z" fill="#797575"/>
<path id="Vector_8" d="M19.9649 25.4757C19.055 25.4757 14.4452 25.4043 13.0491 24.0061C12.8049 23.7618 12.6882 23.4982 12.6882 23.1999C12.6925 22.0653 14.6354 21.4148 18.0176 21.4148C19.2236 21.4148 20.1572 21.5012 20.168 21.5012C20.1767 21.5012 20.1875 21.5034 20.1961 21.5034C20.7018 21.5056 21.1795 21.7109 21.536 22.0848C21.897 22.4608 22.0936 22.9622 22.0936 23.4939C22.0893 24.5853 21.2356 25.4713 20.1896 25.4713C20.1745 25.4757 20.0989 25.4757 19.9649 25.4757Z" fill="#979393"/>
<path id="Vector_9" d="M18.0199 21.7414C19.2064 21.7414 20.1292 21.8257 20.1378 21.8278C20.1573 21.83 20.1767 21.83 20.1962 21.83C20.6133 21.8321 21.0066 22.0029 21.3027 22.3119C21.6053 22.6275 21.7717 23.0489 21.7695 23.4963C21.7674 24.4083 21.0585 25.1517 20.1832 25.1517H20.1811H20.1681C20.1638 25.1517 20.0903 25.1539 19.9628 25.1539C16.0402 25.1539 13.9093 24.4126 13.2761 23.7794C13.0362 23.5395 13.0103 23.3363 13.0103 23.2045C13.0167 22.3011 14.9337 21.7414 18.0199 21.7414ZM18.0199 21.093C15.7031 21.093 12.3705 21.4042 12.3662 23.2002C12.3576 25.6769 18.6985 25.8001 19.9649 25.8001C20.1054 25.8001 20.1832 25.7979 20.1832 25.7979H20.1897C21.4173 25.7979 22.4136 24.7692 22.4179 23.4963C22.4222 22.2212 21.4281 21.1838 20.1984 21.1795C20.1984 21.1816 19.2539 21.093 18.0199 21.093Z" fill="#797575"/>
<path id="Vector_10" d="M19.1567 22.0463C17.2138 22.0463 12.6969 21.8258 12.6969 19.7835C12.6969 18.0675 15.9539 17.8125 17.8968 17.8125C19.6149 17.8125 21.0953 18.0027 21.1104 18.0048C21.1234 18.007 21.1385 18.007 21.1515 18.007C22.0527 18.007 23.1031 18.4522 23.1031 19.7079C23.1031 20.8965 22.1737 21.9771 21.1515 21.9771H21.1256C21.1169 21.9793 20.2849 22.0463 19.1567 22.0463Z" fill="#979393"/>
<g id="Group">
<path id="Vector_11" d="M17.897 17.4902V18.1386C19.5892 18.1386 21.0545 18.3266 21.0674 18.3288C21.0955 18.3331 21.1236 18.3331 21.1517 18.3331C21.9384 18.3331 22.7791 18.694 22.7791 19.7098C22.7791 20.7104 21.9881 21.6548 21.1517 21.6548C21.1344 21.6548 21.1171 21.6548 21.0977 21.657C21.089 21.657 20.2699 21.724 19.1548 21.724C17.9769 21.724 16.2934 21.6484 14.9599 21.2939C13.674 20.9503 13.0213 20.4424 13.0213 19.7876C13.0213 19.5866 13.0213 18.975 14.3915 18.5449C15.2452 18.2769 16.423 18.1408 17.8948 18.1408L17.897 17.4902ZM17.897 17.4902C15.3986 17.4902 12.373 17.8836 12.373 19.7854C12.373 22.0266 16.5657 22.3724 19.1569 22.3724C20.3153 22.3724 21.1517 22.3032 21.1517 22.3032C22.3706 22.3032 23.4274 21.0432 23.4274 19.7098C23.4274 18.3763 22.3706 17.6847 21.1517 17.6847C21.1517 17.6847 19.654 17.4902 17.897 17.4902Z" fill="#797575"/>
<path id="Vector_12" d="M4.1731 23.9003L3.1379 19.8157L2.70566 23.4897L4.1731 23.9003Z" fill="#797575"/>
</g>
</g>
</svg>
