<svg width="24" height="24" viewBox="0 0 24 24" fill="none" xmlns="http://www.w3.org/2000/svg">
<g id="circum:twitter">
<path id="Vector" d="M19.913 5.32189C20.1016 5.32347 20.2862 5.37661 20.4468 5.47557C20.6074 5.57452 20.7378 5.71552 20.8241 5.8833C20.9103 6.05108 20.9489 6.23925 20.9359 6.42743C20.9228 6.6156 20.8585 6.79663 20.75 6.95089L19.708 8.43189C19.644 13.5179 17.943 16.9709 14.652 18.6959C13.0837 19.4753 11.351 19.8659 9.59998 19.8349C7.43485 19.8847 5.29531 19.3588 3.39998 18.3109C3.27248 18.2252 3.17394 18.1029 3.11735 17.9601C3.06076 17.8173 3.04878 17.6607 3.08298 17.5109C3.115 17.3589 3.19235 17.2202 3.30483 17.1131C3.4173 17.006 3.55962 16.9355 3.71298 16.9109C4.98623 16.7331 6.24003 16.4364 7.45798 16.0249C1.99998 13.4999 3.18998 7.82389 3.70998 6.08089C3.76068 5.90785 3.85599 5.75118 3.98637 5.62662C4.11675 5.50205 4.27759 5.41397 4.45277 5.37122C4.62794 5.32846 4.81128 5.33254 4.98439 5.38303C5.15749 5.43352 5.31427 5.52866 5.43898 5.65889C7.03662 7.30512 9.15491 8.34748 11.434 8.60889C11.3935 7.99643 11.4882 7.38257 11.7113 6.81075C11.9344 6.23893 12.2805 5.72314 12.725 5.29989C13.4951 4.56906 14.5173 4.16329 15.579 4.16702C16.6407 4.17074 17.66 4.58367 18.425 5.31989L19.913 5.32189ZM4.52098 17.7939C6.38298 18.6659 10.747 19.6129 14.188 17.8099C17.143 16.2609 18.664 13.0779 18.709 8.34889C18.711 8.19252 18.7605 8.04046 18.851 7.91289L19.932 6.37489L19.891 6.32189C19.373 6.31489 18.862 6.30789 18.341 6.32189C18.1378 6.31724 17.9434 6.23866 17.794 6.10089C17.2183 5.51738 16.4368 5.18296 15.6172 5.1695C14.7976 5.15604 14.0055 5.4646 13.411 6.02889C13.0291 6.39206 12.7437 6.84458 12.5805 7.34563C12.4172 7.84668 12.3813 8.38049 12.476 8.89889C12.4934 8.99547 12.4886 9.09474 12.4619 9.18917C12.4352 9.2836 12.3874 9.37071 12.322 9.44389C12.2593 9.51771 12.1795 9.57502 12.0896 9.61076C11.9996 9.64651 11.9022 9.6596 11.806 9.64889C9.1192 9.4614 6.59638 8.28795 4.72198 6.35389C4.05198 8.43189 3.20198 13.4479 8.59098 15.4189C8.70439 15.4596 8.80381 15.5318 8.87751 15.6272C8.95122 15.7225 8.99614 15.8369 9.00698 15.9569C9.01918 16.0751 8.99743 16.1943 8.9443 16.3006C8.89117 16.4068 8.80884 16.4957 8.70698 16.5569C7.39011 17.1991 5.97538 17.6171 4.52098 17.7939Z" fill="black"/>
</g>
</svg>
