<svg width="24" height="23" viewBox="0 0 24 23" fill="none" xmlns="http://www.w3.org/2000/svg">
<path d="M13.1683 20.1769C12.6862 20.5639 12.2877 20.8715 12.0092 21.0829C11.7295 20.8715 11.3292 20.5636 10.8448 20.1761C9.86711 19.3941 8.55071 18.2911 7.19317 17.0056C5.83372 15.7184 4.4449 14.2594 3.31505 12.766C2.17772 11.2627 1.34258 9.77609 1.02833 8.43132C0.372301 5.62392 0.952941 3.73052 1.95411 2.54454C2.97412 1.33623 4.52352 0.75 5.998 0.75C7.91643 0.75 9.22427 1.7135 10.0803 2.72382C10.5096 3.2305 10.8162 3.74021 11.0152 4.12371C11.1143 4.31463 11.1854 4.472 11.2309 4.57893C11.2536 4.63233 11.2698 4.67296 11.2797 4.69867L11.29 4.72572L11.2913 4.72922L11.2915 4.72967L11.2916 4.73009L11.2917 4.73028L11.2917 4.73031L11.2918 4.73049L11.9931 6.70826L12.7032 4.73333L12.7033 4.73314L12.7034 4.73273L12.7036 4.73229L12.7049 4.72868L12.7154 4.70152C12.7255 4.67572 12.7419 4.63501 12.7649 4.58152C12.8109 4.47441 12.8828 4.31684 12.9827 4.12569C13.1834 3.74176 13.492 3.23153 13.9225 2.72434C14.7816 1.7122 16.0878 0.75 17.99 0.75C19.6099 0.75 21.1477 1.34324 22.1254 2.53616C23.0904 3.71358 23.6158 5.60632 22.9556 8.43132C22.6407 9.77673 21.8071 11.2636 20.6731 12.7668C19.5464 14.2603 18.162 15.7193 16.8071 17.0065C15.4542 18.2919 14.1424 19.3949 13.1683 20.1769Z" stroke="#2D2D2D" stroke-width="1.5"/>
<mask id="path-2-inside-1_1560_457" fill="white">
<path d="M5.32187 0.445999C8.76187 0.445999 10.4699 4.14399 11.0219 5.64199C11.0999 5.85599 11.3979 5.86199 11.4879 5.65399L11.9919 4.47599C11.2819 2.208 9.32986 0 5.99787 0C4.61787 0 3.15988 0.455999 2.02588 1.418C3.02788 0.759998 4.20187 0.445999 5.32187 0.445999Z"/>
</mask>
<path d="M5.32187 0.445999C8.76187 0.445999 10.4699 4.14399 11.0219 5.64199C11.0999 5.85599 11.3979 5.86199 11.4879 5.65399L11.9919 4.47599C11.2819 2.208 9.32986 0 5.99787 0C4.61787 0 3.15988 0.455999 2.02588 1.418C3.02788 0.759998 4.20187 0.445999 5.32187 0.445999Z" fill="#CC3333"/>
<path d="M11.0219 5.64199L12.4312 5.12831L12.4293 5.12334L11.0219 5.64199ZM11.4879 5.65399L12.8645 6.24966L12.8669 6.24402L11.4879 5.65399ZM11.9919 4.47599L13.3709 5.06602L13.5889 4.55662L13.4234 4.02786L11.9919 4.47599ZM2.02588 1.418L1.05552 0.274143L2.84925 2.67182L2.02588 1.418ZM5.32187 1.946C6.43918 1.946 7.34231 2.5298 8.1023 3.44224C8.87099 4.36513 9.3646 5.4828 9.61438 6.16063L12.4293 5.12334C12.1271 4.30319 11.4907 2.82286 10.4074 1.52225C9.31542 0.211194 7.64456 -1.054 5.32187 -1.054V1.946ZM9.61256 6.15566C10.1659 7.67376 12.2485 7.67333 12.8645 6.24966L10.1112 5.05832C10.5472 4.05065 12.0338 4.03822 12.4312 5.12832L9.61256 6.15566ZM12.8669 6.24402L13.3709 5.06602L10.6128 3.88596L10.1088 5.06396L12.8669 6.24402ZM13.4234 4.02786C12.5682 1.29633 10.1412 -1.5 5.99787 -1.5V1.5C8.51853 1.5 9.99548 3.11966 10.5604 4.92412L13.4234 4.02786ZM5.99787 -1.5C4.30495 -1.5 2.4913 -0.943868 1.05552 0.274143L2.99624 2.56185C3.82845 1.85587 4.9308 1.5 5.99787 1.5V-1.5ZM2.84925 2.67182C3.58884 2.18614 4.47238 1.946 5.32187 1.946V-1.054C3.93137 -1.054 2.46691 -0.666139 1.20251 0.164176L2.84925 2.67182Z" fill="#2D2D2D" mask="url(#path-2-inside-1_1560_457)"/>
<path d="M21.4762 11.6236C21.9937 10.6627 22.3937 9.69664 22.6108 8.75448L21.4762 11.6236ZM21.4762 11.6236C22.1975 10.5148 22.7208 9.43267 22.9557 8.42927C23.5982 5.68049 23.1189 3.81465 22.204 2.63176C22.998 4.1449 23.2016 6.19207 22.6108 8.75439L21.4762 11.6236Z" stroke="#2D2D2D" stroke-width="1.5"/>
</svg>
