<svg width="25" height="24" viewBox="0 0 25 24" fill="none" xmlns="http://www.w3.org/2000/svg">
<path d="M13.7644 21.1679C13.2823 21.5549 12.8839 21.8625 12.6053 22.0738C12.3256 21.8625 11.9253 21.5546 11.4409 21.1671C10.4632 20.3851 9.14684 19.282 7.7893 17.9966C6.42985 16.7093 5.04104 15.2504 3.91118 13.757C2.77385 12.2537 1.93871 10.7671 1.62446 9.42229C0.968432 6.61488 1.54907 4.72149 2.55024 3.53551C3.57025 2.3272 5.11965 1.74097 6.59413 1.74097C8.51256 1.74097 9.8204 2.70447 10.6764 3.71479C11.1057 4.22147 11.4124 4.73117 11.6113 5.11467C11.7104 5.3056 11.7816 5.46297 11.827 5.5699C11.8497 5.6233 11.8659 5.66392 11.8759 5.68964L11.8861 5.71669L11.8874 5.72018L11.8876 5.72064L11.8878 5.72106L11.8878 5.72125L11.8878 5.72128L11.8879 5.72146L12.5893 7.69923L13.2993 5.7243L13.2994 5.72411L13.2995 5.7237L13.2997 5.72325L13.301 5.71965L13.3115 5.69248C13.3216 5.66669 13.338 5.62598 13.361 5.57248C13.407 5.46537 13.4789 5.30781 13.5788 5.11666C13.7795 4.73273 14.0881 4.2225 14.5187 3.71531C15.3778 2.70316 16.684 1.74097 18.5861 1.74097C20.2061 1.74097 21.7438 2.33421 22.7215 3.52713C23.6865 4.70455 24.2119 6.59728 23.5518 9.42229C23.2369 10.7677 22.4033 12.2546 21.2692 13.7578C20.1425 15.2512 18.7581 16.7102 17.4033 17.9975C16.0503 19.2829 14.7385 20.3859 13.7644 21.1679Z" stroke="#2D2D2D" stroke-width="1.5"/>
<mask id="path-2-inside-1_1481_1055" fill="white">
<path d="M5.91812 1.43697C9.35812 1.43697 11.0661 5.13496 11.6181 6.63296C11.6961 6.84696 11.9941 6.85296 12.0841 6.64496L12.5881 5.46696C11.8781 3.19896 9.92612 0.990967 6.59412 0.990967C5.21413 0.990967 3.75613 1.44697 2.62213 2.40896C3.62413 1.75097 4.79813 1.43697 5.91812 1.43697Z"/>
</mask>
<path d="M5.91812 1.43697C9.35812 1.43697 11.0661 5.13496 11.6181 6.63296C11.6961 6.84696 11.9941 6.85296 12.0841 6.64496L12.5881 5.46696C11.8781 3.19896 9.92612 0.990967 6.59412 0.990967C5.21413 0.990967 3.75613 1.44697 2.62213 2.40896C3.62413 1.75097 4.79813 1.43697 5.91812 1.43697Z" fill="#CC3333"/>
<path d="M11.6181 6.63296L13.0274 6.11928L13.0256 6.11431L11.6181 6.63296ZM12.0841 6.64496L13.4608 7.24063L13.4632 7.23499L12.0841 6.64496ZM12.5881 5.46696L13.9672 6.05699L14.1851 5.54759L14.0196 5.01883L12.5881 5.46696ZM2.62213 2.40896L1.65177 1.26511L3.4455 3.66278L2.62213 2.40896ZM5.91812 2.93697C7.03543 2.93697 7.93856 3.52077 8.69855 4.43321C9.46725 5.3561 9.96085 6.47376 10.2106 7.1516L13.0256 6.11431C12.7234 5.29415 12.087 3.81382 11.0037 2.51322C9.91168 1.20216 8.24081 -0.0630342 5.91812 -0.0630342V2.93697ZM10.2088 7.14663C10.7621 8.66473 12.8448 8.66429 13.4608 7.24062L10.7075 6.04929C11.1435 5.04162 12.6301 5.02918 13.0274 6.11928L10.2088 7.14663ZM13.4632 7.23499L13.9672 6.05699L11.209 4.87693L10.705 6.05492L13.4632 7.23499ZM14.0196 5.01883C13.1645 2.2873 10.7374 -0.509033 6.59412 -0.509033V2.49097C9.11479 2.49097 10.5917 4.11063 11.1566 5.91509L14.0196 5.01883ZM6.59412 -0.509033C4.9012 -0.509033 3.08756 0.0470991 1.65177 1.26511L3.59249 3.55282C4.4247 2.84683 5.52705 2.49097 6.59412 2.49097V-0.509033ZM3.4455 3.66278C4.18509 3.1771 5.06863 2.93697 5.91812 2.93697V-0.0630342C4.52762 -0.0630342 3.06317 0.324828 1.79876 1.15514L3.4455 3.66278Z" fill="#2D2D2D" mask="url(#path-2-inside-1_1481_1055)"/>
<path d="M22.0722 12.6146C22.5897 11.6536 22.9898 10.6876 23.2069 9.74544L22.0722 12.6146ZM22.0722 12.6146C22.7935 11.5057 23.3169 10.4236 23.5517 9.42023C24.1943 6.67146 23.715 4.80562 22.8 3.62272C23.5941 5.13587 23.7976 7.18304 23.2069 9.74535L22.0722 12.6146Z" stroke="#2D2D2D" stroke-width="1.5"/>
</svg>
