<svg xmlns="http://www.w3.org/2000/svg" xmlns:xlink="http://www.w3.org/1999/xlink" width="56" zoomAndPan="magnify" viewBox="0 0 42 42" height="56" preserveAspectRatio="xMidYMid meet" version="1.0"><defs><clipPath id="d5a74cb224"><path d="M 0.488281 3 L 41.511719 3 L 41.511719 39 L 0.488281 39 Z M 0.488281 3 " clip-rule="nonzero"/></clipPath></defs><g clip-path="url(#d5a74cb224)"><path fill="#ffffff" d="M 20.976562 38.199219 L 3.777344 21 C 1.800781 19.023438 0.714844 16.398438 0.714844 13.605469 C 0.714844 10.8125 1.800781 8.1875 3.777344 6.210938 C 5.75 4.238281 8.378906 3.148438 11.171875 3.148438 C 13.964844 3.148438 16.589844 4.238281 18.5625 6.210938 L 20.976562 8.625 L 23.390625 6.210938 C 25.363281 4.238281 27.992188 3.148438 30.785156 3.148438 C 33.578125 3.148438 36.203125 4.238281 38.175781 6.210938 C 40.152344 8.1875 41.242188 10.8125 41.242188 13.605469 C 41.242188 16.398438 40.152344 19.023438 38.175781 21 Z M 11.171875 4.949219 C 8.859375 4.949219 6.683594 5.851562 5.050781 7.484375 C 3.414062 9.121094 2.515625 11.292969 2.515625 13.605469 C 2.515625 15.917969 3.414062 18.09375 5.050781 19.726562 L 20.976562 35.652344 L 36.902344 19.726562 C 38.539062 18.09375 39.4375 15.917969 39.4375 13.605469 C 39.4375 11.292969 38.539062 9.121094 36.902344 7.484375 C 35.269531 5.851562 33.097656 4.949219 30.785156 4.949219 C 28.472656 4.949219 26.296875 5.851562 24.664062 7.484375 L 20.976562 11.171875 L 17.289062 7.484375 C 15.65625 5.851562 13.480469 4.949219 11.171875 4.949219 Z M 11.171875 4.949219 " fill-opacity="1" fill-rule="nonzero"/></g></svg>