<svg width="256" height="256" viewBox="0 0 256 256" fill="none" xmlns="http://www.w3.org/2000/svg">
<path d="M178 36C156.56 36 138.08 46.19 128 63.07C117.92 46.19 99.44 36 78 36C62.6231 36.0185 47.8814 42.1352 37.0083 53.0083C26.1352 63.8814 20.0185 78.6231 20 94C20 122.59 38 152.47 73.4 182.79C89.7451 196.699 107.393 208.999 126.1 219.52C126.684 219.835 127.337 220 128 220C128.663 220 129.316 219.835 129.9 219.52C148.607 208.999 166.255 196.699 182.6 182.79C218 152.47 236 122.59 236 94C235.981 78.6231 229.865 63.8814 218.992 53.0083C208.119 42.1352 193.377 36.0185 178 36ZM128 211.42C114 203.46 28 152.07 28 94C28.0159 80.7441 33.2888 68.0356 42.6622 58.6622C52.0356 49.2888 64.7441 44.0159 78 44C99.11 44 116.85 55.31 124.3 73.51C124.601 74.2436 125.114 74.8711 125.773 75.3127C126.432 75.7544 127.207 75.9901 128 75.9901C128.793 75.9901 129.568 75.7544 130.227 75.3127C130.886 74.8711 131.399 74.2436 131.7 73.51C139.15 55.31 156.89 44 178 44C191.256 44.0159 203.964 49.2888 213.338 58.6622C222.711 68.0356 227.984 80.7441 228 94C228 152 142 203.46 128 211.42Z" fill="black"/>
</svg>
