<svg width="256" height="256" viewBox="0 0 256 256" fill="none" xmlns="http://www.w3.org/2000/svg">
<path d="M28 128C28.0185 109.971 35.1887 92.6857 47.9372 79.9372C60.6856 67.1888 77.9709 60.0186 96 60H214.34L197.17 42.83C196.419 42.0795 195.998 41.0615 195.998 40C195.998 38.9386 196.419 37.9206 197.17 37.17C197.921 36.4195 198.939 35.9978 200 35.9978C201.061 35.9978 202.079 36.4195 202.83 37.17L226.83 61.17C227.202 61.5415 227.497 61.9827 227.698 62.4683C227.9 62.9539 228.003 63.4744 228.003 64C228.003 64.5257 227.9 65.0462 227.698 65.5318C227.497 66.0174 227.202 66.4585 226.83 66.83L202.83 90.83C202.079 91.5806 201.061 92.0023 200 92.0023C198.939 92.0023 197.921 91.5806 197.17 90.83C196.419 90.0795 195.998 89.0615 195.998 88C195.998 86.9386 196.419 85.9206 197.17 85.17L214.34 68H96C80.0927 68.0186 64.8422 74.3459 53.594 85.5941C42.3459 96.8423 36.0185 112.093 36 128C36 129.061 35.5785 130.078 34.8284 130.828C34.0783 131.579 33.0608 132 32 132C30.9391 132 29.9217 131.579 29.1715 130.828C28.4214 130.078 28 129.061 28 128ZM224 124C222.939 124 221.922 124.421 221.172 125.172C220.421 125.922 220 126.939 220 128C219.981 143.907 213.654 159.158 202.406 170.406C191.158 181.654 175.907 187.982 160 188H41.66L58.83 170.83C59.5805 170.079 60.0022 169.061 60.0022 168C60.0022 166.939 59.5805 165.921 58.83 165.17C58.0794 164.419 57.0614 163.998 56 163.998C54.9385 163.998 53.9205 164.419 53.17 165.17L29.17 189.17C28.7981 189.542 28.503 189.983 28.3017 190.468C28.1004 190.954 27.9968 191.474 27.9968 192C27.9968 192.526 28.1004 193.046 28.3017 193.532C28.503 194.017 28.7981 194.459 29.17 194.83L53.17 218.83C53.9205 219.581 54.9385 220.002 56 220.002C57.0614 220.002 58.0794 219.581 58.83 218.83C59.5805 218.079 60.0022 217.061 60.0022 216C60.0022 214.939 59.5805 213.921 58.83 213.17L41.66 196H160C178.029 195.981 195.314 188.811 208.063 176.063C220.811 163.314 227.981 146.029 228 128C228 126.939 227.579 125.922 226.828 125.172C226.078 124.421 225.061 124 224 124Z" fill="black"/>
</svg>
