<svg width="256" height="256" viewBox="0 0 256 256" fill="none" xmlns="http://www.w3.org/2000/svg">
<path d="M234.83 181.17C235.202 181.542 235.497 181.983 235.698 182.468C235.9 182.954 236.003 183.474 236.003 184C236.003 184.526 235.9 185.046 235.698 185.532C235.497 186.017 235.202 186.459 234.83 186.83L210.83 210.83C210.079 211.581 209.061 212.002 208 212.002C206.939 212.002 205.921 211.581 205.17 210.83C204.419 210.079 203.998 209.061 203.998 208C203.998 206.939 204.419 205.921 205.17 205.17L222.34 188H200.94C190.117 187.988 179.452 185.399 169.829 180.446C160.206 175.494 151.9 168.32 145.6 159.52L103.89 101.13C98.3324 93.3634 91.0043 87.0328 82.5126 82.6627C74.0209 78.2925 64.6102 76.0086 55.06 76H32C30.9391 76 29.9217 75.5786 29.1716 74.8285C28.4214 74.0783 28 73.0609 28 72C28 70.9392 28.4214 69.9217 29.1716 69.1716C29.9217 68.4215 30.9391 68 32 68H55.06C65.883 68.0118 76.5476 70.6011 86.171 75.5537C95.7945 80.5062 104.1 87.6796 110.4 96.48L152.11 154.87C157.668 162.637 164.996 168.967 173.487 173.337C181.979 177.708 191.39 179.992 200.94 180H222.34L205.17 162.83C204.419 162.079 203.998 161.061 203.998 160C203.998 158.939 204.419 157.921 205.17 157.17C205.921 156.419 206.939 155.998 208 155.998C209.061 155.998 210.079 156.419 210.83 157.17L234.83 181.17ZM145.34 103.73C145.767 104.035 146.251 104.254 146.763 104.372C147.274 104.491 147.804 104.507 148.323 104.421C148.841 104.334 149.337 104.147 149.783 103.869C150.228 103.591 150.615 103.227 150.92 102.8L152.11 101.13C157.668 93.3634 164.996 87.0328 173.487 82.6627C181.979 78.2925 191.39 76.0086 200.94 76H222.34L205.17 93.17C204.419 93.9206 203.998 94.9386 203.998 96C203.998 97.0615 204.419 98.0795 205.17 98.83C205.921 99.5806 206.939 100.002 208 100.002C209.061 100.002 210.079 99.5806 210.83 98.83L234.83 74.83C235.202 74.4585 235.497 74.0174 235.698 73.5318C235.9 73.0462 236.003 72.5257 236.003 72C236.003 71.4744 235.9 70.9539 235.698 70.4683C235.497 69.9827 235.202 69.5415 234.83 69.17L210.83 45.17C210.079 44.4195 209.061 43.9978 208 43.9978C206.939 43.9978 205.921 44.4195 205.17 45.17C204.419 45.9206 203.998 46.9386 203.998 48C203.998 49.0615 204.419 50.0795 205.17 50.83L222.34 68H200.94C190.117 68.0118 179.452 70.6011 169.829 75.5537C160.206 80.5062 151.9 87.6796 145.6 96.48L144.41 98.15C144.105 98.5775 143.887 99.0609 143.768 99.5726C143.649 100.084 143.633 100.614 143.719 101.133C143.806 101.651 143.993 102.147 144.271 102.593C144.549 103.038 144.913 103.425 145.34 103.73ZM110.66 152.27C110.233 151.965 109.749 151.747 109.237 151.628C108.726 151.51 108.196 151.493 107.677 151.579C107.159 151.666 106.663 151.853 106.217 152.131C105.772 152.409 105.385 152.773 105.08 153.2L103.89 154.87C98.3324 162.637 91.0043 168.967 82.5126 173.337C74.0209 177.708 64.6102 179.992 55.06 180H32C30.9391 180 29.9217 180.421 29.1716 181.172C28.4214 181.922 28 182.939 28 184C28 185.061 28.4214 186.078 29.1716 186.828C29.9217 187.579 30.9391 188 32 188H55.06C65.883 187.988 76.5476 185.399 86.171 180.446C95.7945 175.494 104.1 168.32 110.4 159.52L111.59 157.85C111.895 157.423 112.113 156.939 112.232 156.427C112.351 155.916 112.367 155.386 112.281 154.867C112.194 154.349 112.007 153.853 111.729 153.408C111.451 152.962 111.087 152.575 110.66 152.27Z" fill="black"/>
</svg>
